<?xml version="1.0" encoding="utf-8"?>
<!-- Generator: Adobe Illustrator 24.2.1, SVG Export Plug-In . SVG Version: 6.00 Build 0)  -->
<svg version="1.1" id="Layer_1" xmlns="http://www.w3.org/2000/svg" xmlns:xlink="http://www.w3.org/1999/xlink" x="0px" y="0px"
	 viewBox="0 0 362 35" style="enable-background:new 0 0 362 35;" xml:space="preserve">
<g>
	<path d="M226.7,14.5h-0.9v-8h4.5v0.8h-3.5v2.9h3.3V11h-3.3V14.5z"/>
	<path d="M233.4,11.1v3.3h-0.9v-8h2.2c1,0,1.7,0.2,2.2,0.6c0.5,0.4,0.7,0.9,0.7,1.7c0,1.1-0.5,1.8-1.6,2.1l2.2,3.6H237l-1.9-3.3
		H233.4z M233.4,10.3h1.3c0.7,0,1.1-0.1,1.4-0.4c0.3-0.3,0.5-0.7,0.5-1.2c0-0.5-0.2-0.9-0.5-1.1c-0.3-0.2-0.8-0.4-1.5-0.4h-1.2V10.3
		z"/>
	<path d="M247.3,10.5c0,1.3-0.3,2.3-1,3c-0.6,0.7-1.5,1.1-2.7,1.1c-1.2,0-2.1-0.4-2.7-1.1s-1-1.7-1-3.1c0-1.3,0.3-2.3,1-3
		c0.6-0.7,1.6-1.1,2.7-1.1c1.2,0,2,0.4,2.7,1.1S247.3,9.2,247.3,10.5z M240.9,10.5c0,1.1,0.2,1.9,0.7,2.5c0.5,0.6,1.1,0.8,2,0.8
		c0.9,0,1.6-0.3,2-0.8s0.7-1.4,0.7-2.5c0-1.1-0.2-1.9-0.7-2.5c-0.5-0.6-1.1-0.8-2-0.8c-0.9,0-1.6,0.3-2,0.8
		C241.2,8.6,240.9,9.4,240.9,10.5z"/>
	<path d="M253.6,14.5l-2.7-7.1h0c0.1,0.6,0.1,1.2,0.1,2v5.1h-0.9v-8h1.4l2.5,6.6h0l2.6-6.6h1.4v8h-0.9V9.3c0-0.6,0-1.2,0.1-1.9h0
		l-2.7,7.1H253.6z"/>
	<path d="M268.6,14.5l-2.7-7.1h0c0.1,0.6,0.1,1.2,0.1,2v5.1H265v-8h1.4l2.5,6.6h0l2.6-6.6h1.4v8H272V9.3c0-0.6,0-1.2,0.1-1.9h0
		l-2.7,7.1H268.6z"/>
	<path d="M281.1,14.5l-1-2.5h-3.2l-1,2.5H275l3.2-8h0.8l3.1,8H281.1z M279.8,11.1l-0.9-2.5c-0.1-0.3-0.2-0.7-0.4-1.2
		c-0.1,0.4-0.2,0.7-0.3,1.2l-0.9,2.5H279.8z"/>
	<path d="M289.5,14.5h-1.1l-2.2-3.5l-2.2,3.5h-1l2.7-4.2l-2.5-3.8h1l2,3.2l2-3.2h1l-2.5,3.8L289.5,14.5z"/>
	<path d="M296,14.5h-4.5v-8h4.5v0.8h-3.5v2.6h3.3v0.8h-3.3v2.9h3.5V14.5z"/>
	<path d="M305.7,10.5c0,1.3-0.3,2.3-1,3s-1.5,1.1-2.7,1.1c-1.2,0-2.1-0.4-2.7-1.1c-0.6-0.7-1-1.7-1-3.1c0-1.3,0.3-2.3,1-3
		c0.6-0.7,1.6-1.1,2.7-1.1c1.2,0,2,0.4,2.7,1.1S305.7,9.2,305.7,10.5z M299.3,10.5c0,1.1,0.2,1.9,0.7,2.5c0.5,0.6,1.1,0.8,2,0.8
		c0.9,0,1.6-0.3,2-0.8s0.7-1.4,0.7-2.5c0-1.1-0.2-1.9-0.7-2.5s-1.1-0.8-2-0.8c-0.9,0-1.6,0.3-2,0.8C299.6,8.6,299.3,9.4,299.3,10.5z
		"/>
	<path d="M314.7,14.5h-1.1l-4.4-6.7h0c0.1,0.8,0.1,1.5,0.1,2.2v4.6h-0.9v-8h1.1l4.4,6.7h0c0-0.1,0-0.4,0-1c0-0.5,0-0.9,0-1.1V6.5
		h0.9V14.5z"/>
	<path d="M230.3,26.2c0,0.7-0.3,1.3-0.8,1.6c-0.5,0.4-1.2,0.6-2.1,0.6c-0.9,0-1.7-0.1-2.2-0.4v-0.9c0.3,0.1,0.7,0.2,1.1,0.3
		s0.8,0.1,1.2,0.1c0.6,0,1.1-0.1,1.4-0.4c0.3-0.2,0.5-0.6,0.5-1c0-0.3-0.1-0.5-0.2-0.7s-0.3-0.3-0.6-0.5c-0.3-0.1-0.7-0.3-1.2-0.5
		c-0.7-0.3-1.3-0.6-1.6-0.9s-0.5-0.8-0.5-1.4c0-0.6,0.2-1.1,0.7-1.5s1.1-0.5,1.8-0.5c0.8,0,1.5,0.1,2.2,0.4l-0.3,0.8
		c-0.7-0.3-1.3-0.4-1.9-0.4c-0.5,0-0.9,0.1-1.2,0.3s-0.4,0.5-0.4,0.9c0,0.3,0.1,0.5,0.2,0.7s0.3,0.3,0.5,0.5
		c0.2,0.1,0.6,0.3,1.1,0.5c0.8,0.3,1.4,0.6,1.7,1S230.3,25.7,230.3,26.2z"/>
	<path d="M239.8,24.3c0,1.3-0.3,2.3-1,3c-0.6,0.7-1.5,1.1-2.7,1.1c-1.2,0-2.1-0.4-2.7-1.1c-0.6-0.7-1-1.7-1-3.1c0-1.3,0.3-2.3,1-3
		c0.6-0.7,1.6-1.1,2.7-1.1c1.2,0,2,0.4,2.7,1.1C239.5,22,239.8,23.1,239.8,24.3z M233.4,24.3c0,1.1,0.2,1.9,0.7,2.5
		c0.5,0.6,1.1,0.8,2,0.8c0.9,0,1.6-0.3,2-0.8c0.5-0.6,0.7-1.4,0.7-2.5c0-1.1-0.2-1.9-0.7-2.5c-0.5-0.6-1.1-0.8-2-0.8
		c-0.9,0-1.6,0.3-2,0.8C233.7,22.5,233.4,23.3,233.4,24.3z"/>
	<path d="M242.5,28.4v-8h0.9v7.2h3.5v0.8H242.5z"/>
	<path d="M254.4,28.4l-1-2.5h-3.2l-1,2.5h-0.9l3.2-8h0.8l3.1,8H254.4z M253.1,25l-0.9-2.5c-0.1-0.3-0.2-0.7-0.4-1.2
		c-0.1,0.4-0.2,0.7-0.3,1.2l-0.9,2.5H253.1z"/>
	<path d="M258.3,25v3.3h-0.9v-8h2.2c1,0,1.7,0.2,2.2,0.6c0.5,0.4,0.7,0.9,0.7,1.7c0,1.1-0.5,1.8-1.6,2.1l2.2,3.6h-1.1L260,25H258.3z
		 M258.3,24.2h1.3c0.7,0,1.1-0.1,1.4-0.4c0.3-0.3,0.5-0.7,0.5-1.2c0-0.5-0.2-0.9-0.5-1.1s-0.8-0.4-1.5-0.4h-1.2V24.2z"/>
	<path d="M271.6,28.4h-0.9v-7.2h-2.5v-0.8h6v0.8h-2.5V28.4z"/>
	<path d="M280.8,28.4h-4.5v-8h4.5v0.8h-3.5v2.6h3.3v0.8h-3.3v2.9h3.5V28.4z"/>
	<path d="M286.9,21.1c-0.9,0-1.6,0.3-2.1,0.9c-0.5,0.6-0.8,1.4-0.8,2.4c0,1,0.2,1.9,0.7,2.4c0.5,0.6,1.2,0.9,2.1,0.9
		c0.6,0,1.2-0.1,1.9-0.3v0.8c-0.6,0.2-1.2,0.3-2.1,0.3c-1.2,0-2.1-0.4-2.7-1.1c-0.6-0.7-1-1.7-1-3.1c0-0.8,0.2-1.5,0.5-2.2
		s0.8-1.1,1.3-1.4s1.3-0.5,2.1-0.5c0.8,0,1.6,0.2,2.2,0.5l-0.4,0.8C288.1,21.2,287.5,21.1,286.9,21.1z"/>
	<path d="M297.6,28.4h-0.9v-3.8h-4.2v3.8h-0.9v-8h0.9v3.4h4.2v-3.4h0.9V28.4z"/>
	<path d="M307,28.4h-1.1l-4.4-6.7h0c0.1,0.8,0.1,1.5,0.1,2.2v4.6h-0.9v-8h1.1l4.4,6.7h0c0-0.1,0-0.4,0-1c0-0.5,0-0.9,0-1.1v-4.6h0.9
		V28.4z"/>
	<path d="M317.1,24.3c0,1.3-0.3,2.3-1,3c-0.6,0.7-1.5,1.1-2.7,1.1c-1.2,0-2.1-0.4-2.7-1.1c-0.6-0.7-1-1.7-1-3.1c0-1.3,0.3-2.3,1-3
		c0.6-0.7,1.6-1.1,2.7-1.1c1.2,0,2,0.4,2.7,1.1C316.8,22,317.1,23.1,317.1,24.3z M310.7,24.3c0,1.1,0.2,1.9,0.7,2.5
		c0.5,0.6,1.1,0.8,2,0.8c0.9,0,1.6-0.3,2-0.8c0.5-0.6,0.7-1.4,0.7-2.5c0-1.1-0.2-1.9-0.7-2.5c-0.5-0.6-1.1-0.8-2-0.8
		c-0.9,0-1.6,0.3-2,0.8C311,22.5,310.7,23.3,310.7,24.3z"/>
	<path d="M319.8,28.4v-8h0.9v7.2h3.5v0.8H319.8z"/>
	<path d="M333.3,24.3c0,1.3-0.3,2.3-1,3s-1.5,1.1-2.7,1.1c-1.2,0-2.1-0.4-2.7-1.1c-0.6-0.7-1-1.7-1-3.1c0-1.3,0.3-2.3,1-3
		c0.6-0.7,1.6-1.1,2.7-1.1c1.2,0,2,0.4,2.7,1.1C333,22,333.3,23.1,333.3,24.3z M327,24.3c0,1.1,0.2,1.9,0.7,2.5
		c0.5,0.6,1.1,0.8,2,0.8c0.9,0,1.6-0.3,2-0.8c0.5-0.6,0.7-1.4,0.7-2.5c0-1.1-0.2-1.9-0.7-2.5c-0.5-0.6-1.1-0.8-2-0.8
		c-0.9,0-1.6,0.3-2,0.8C327.2,22.5,327,23.3,327,24.3z"/>
	<path d="M339.6,24.2h2.7v3.9c-0.4,0.1-0.9,0.2-1.3,0.3c-0.4,0.1-0.9,0.1-1.5,0.1c-1.2,0-2.2-0.4-2.8-1.1c-0.7-0.7-1-1.7-1-3
		c0-0.8,0.2-1.6,0.5-2.2s0.8-1.1,1.4-1.4s1.4-0.5,2.2-0.5c0.9,0,1.7,0.2,2.4,0.5l-0.4,0.8c-0.7-0.3-1.4-0.5-2.1-0.5
		c-1,0-1.7,0.3-2.3,0.9s-0.8,1.4-0.8,2.4c0,1.1,0.3,1.9,0.8,2.5c0.5,0.6,1.3,0.8,2.3,0.8c0.6,0,1.1-0.1,1.6-0.2V25h-1.8V24.2z"/>
	<path d="M345.2,28.4v-8h0.9v8H345.2z"/>
	<path d="M353.8,28.4h-4.5v-8h4.5v0.8h-3.5v2.6h3.3v0.8h-3.3v2.9h3.5V28.4z"/>
	<path d="M361,26.2c0,0.7-0.3,1.3-0.8,1.6c-0.5,0.4-1.2,0.6-2.1,0.6c-0.9,0-1.7-0.1-2.2-0.4v-0.9c0.3,0.1,0.7,0.2,1.1,0.3
		s0.8,0.1,1.2,0.1c0.6,0,1.1-0.1,1.4-0.4c0.3-0.2,0.5-0.6,0.5-1c0-0.3-0.1-0.5-0.2-0.7s-0.3-0.3-0.6-0.5s-0.7-0.3-1.2-0.5
		c-0.7-0.3-1.3-0.6-1.6-0.9c-0.3-0.4-0.5-0.8-0.5-1.4c0-0.6,0.2-1.1,0.7-1.5c0.5-0.4,1.1-0.5,1.8-0.5c0.8,0,1.5,0.1,2.2,0.4
		l-0.3,0.8c-0.7-0.3-1.3-0.4-1.9-0.4c-0.5,0-0.9,0.1-1.2,0.3s-0.4,0.5-0.4,0.9c0,0.3,0.1,0.5,0.2,0.7c0.1,0.2,0.3,0.3,0.5,0.5
		c0.2,0.1,0.6,0.3,1.1,0.5c0.8,0.3,1.4,0.6,1.7,1S361,25.7,361,26.2z"/>
</g>
<line style="fill:none;stroke:#9DBCCD;stroke-width:0.7006;stroke-miterlimit:10;" x1="208.5" y1="33.5" x2="208.5" y2="1"/>
<g>
	<path d="M12.3,10.4c-0.9-1.6-2-2.4-3.9-2.4c-2,0-3.7,1.4-3.7,3.5c0,1.9,2,2.8,3.5,3.5l1.5,0.7c2.9,1.3,5.4,2.7,5.4,6.3
		c0,3.9-3.2,7-7.1,7c-3.6,0-6.3-2.3-7-5.8l2.4-0.7c0.3,2.3,2.1,4.2,4.5,4.2c2.4,0,4.6-1.9,4.6-4.4c0-2.6-2.1-3.5-4.1-4.5l-1.4-0.6
		c-2.6-1.2-4.9-2.5-4.9-5.8c0-3.5,3-5.7,6.3-5.7c2.5,0,4.6,1.3,5.8,3.5L12.3,10.4z"/>
	<path d="M26,19.4c0,1.7-0.1,3.6,1,5c1,1.4,2.9,2.1,4.5,2.1c1.6,0,3.4-0.7,4.4-2c1.2-1.4,1.1-3.4,1.1-5.2V6h2.5v14.1
		c0,2.4-0.2,4.4-2,6.2c-1.6,1.7-3.8,2.6-6.1,2.6c-2.1,0-4.3-0.8-5.8-2.3c-2-1.9-2.2-3.9-2.2-6.5V6H26V19.4z"/>
	<path d="M48.3,5l17.6,18.4V6h2.5v23.5L50.8,11.2v17.3h-2.5V5z"/>
	<path d="M80.4,8.3h0.9c2.9,0,5.9,0.3,5.9,3.9c0,3.2-2.4,4.1-5.1,4.1h-1.7V8.3z M80.4,18.7h1.8c1.9,0,3.8-0.2,5.3-1.5
		c1.4-1.2,2.1-3,2.1-4.8c0-2-0.9-4-2.5-5.1C85.5,6.1,83.5,6,81.5,6h-3.7v22.5h2.5V18.7z"/>
	<path d="M130.1,22.9l7.3-18l7.3,18L150.6,6h2.7l-8.6,23.7l-7.3-18.1l-7.3,18.1L121.5,6h2.7L130.1,22.9z"/>
	<path d="M158.9,6h11.7v2.3h-9.2V15h8.9v2.3h-8.9v8.8h9.2v2.3h-11.7V6z"/>
	<path d="M181.6,8.3h0.7c3,0,5.7,0.4,5.7,4.1c0,3.5-2.9,4-5.7,4h-0.8V8.3z M181.6,18.6h0.6l6.8,9.9h3.1l-7.2-10.1
		c3.5-0.3,5.6-2.7,5.6-6.2c0-5.1-4-6.2-8.2-6.2h-3.3v22.5h2.5V18.6z"/>
	<path style="fill:#F7921E;" d="M118,17.3c0,6.6-5.2,11.5-11.8,11.5c-6.5,0-11.7-5.2-11.7-11.5c0-6.4,5.2-11.6,11.7-11.6
		C112.8,5.7,118,10.7,118,17.3z M97.2,17.3c0,4.8,3.8,9,8.9,9c5.2,0,9.3-3.9,9.3-9c0-5.2-4-9.1-9.3-9.1C101,8.2,97.2,12.5,97.2,17.3
		z"/>
</g>
</svg>
